<?xml version="1.0" encoding="iso-8859-1"?>
<!-- Generator: Adobe Illustrator 23.0.3, SVG Export Plug-In . SVG Version: 6.00 Build 0)  -->
<svg version="1.1" id="Layer_1" xmlns="http://www.w3.org/2000/svg" xmlns:xlink="http://www.w3.org/1999/xlink" x="0px" y="0px"
	 viewBox="0 0 48 48" style="enable-background:new 0 0 48 48;" xml:space="preserve">
<path d="M34.942,18.079c0.042-0.138,0.062-0.267,0.057-0.381c-0.014-0.332-0.242-0.573-0.779-0.573h-2.4
	c-0.606,0-0.885,0.367-1.049,0.734c0,0-1.496,3.079-3.22,5.109c-0.559,0.588-0.843,0.573-1.146,0.573
	c-0.162,0-0.572-0.196-0.572-0.734v-4.753c0-0.636-0.159-0.929-0.671-0.929h-4.261c-0.373,0-0.567,0.293-0.567,0.588
	c0,0.611,0.823,0.758,0.917,2.471v3.321c0,0.807-0.14,0.953-0.443,0.953c-0.816,0-2.422-2.75-3.497-6.354
	c-0.233-0.709-0.466-0.979-1.072-0.979h-2.423c-0.699,0-0.816,0.343-0.816,0.709c0,0.661,0.55,4.234,3.552,8.342
	c2.177,2.979,5.045,4.698,7.584,4.698c1.538,0,1.696-0.391,1.696-1.003v-2.724c0.001-0.734,0.169-0.856,0.658-0.856
	c0.349,0,1.061,0.229,2.436,1.833c1.586,1.85,1.874,2.75,2.783,2.75h2.4c0.557,0,0.877-0.234,0.89-0.687
	c0.003-0.115-0.014-0.245-0.051-0.389c-0.178-0.528-0.994-1.819-2.011-3.049c-0.564-0.681-1.12-1.356-1.376-1.722
	c-0.171-0.239-0.236-0.408-0.228-0.569c0.008-0.17,0.096-0.331,0.228-0.556C31.538,23.902,34.639,19.547,34.942,18.079z"/>
<path style="fill:none;stroke:#000000;stroke-width:3;stroke-linecap:round;stroke-linejoin:round;stroke-miterlimit:10;" d="
	M26.302,42.358C25.548,42.452,24.779,42.5,24,42.5C13.783,42.5,5.5,34.217,5.5,24c0-4.048,1.3-7.792,3.505-10.838"/>
<path style="fill:none;stroke:#000000;stroke-width:3;stroke-linecap:round;stroke-linejoin:round;stroke-miterlimit:10;" d="
	M15.941,7.343C18.377,6.162,21.111,5.5,24,5.5c10.217,0,18.5,8.283,18.5,18.5c0,7.535-4.505,14.018-10.968,16.902"/>
</svg>